<svg width="406" height="387" viewBox="0 0 406 387" fill="none" xmlns="http://www.w3.org/2000/svg">
<path d="M405.997 252.868V257.688C405.99 279.158 395.566 299.063 378.509 310.174C376.863 311.25 375.165 312.231 373.423 313.115C373.122 313.272 372.816 313.425 372.511 313.578C370.415 314.603 368.261 315.487 366.062 316.222L365.464 316.417C360.144 318.135 354.619 319.005 349.065 319.001H325.963C319.477 319.003 314.221 324.667 314.221 331.652V378.845H117.86V331.652C117.865 326.444 114.901 321.767 110.395 319.876C110.064 319.737 109.729 319.612 109.385 319.501C108.961 319.37 108.53 319.265 108.095 319.186C107.441 319.061 106.778 318.999 106.113 319.001H67.2527C66.6379 319.001 66.0316 319.001 65.4211 318.973C60.7505 318.822 56.1131 318.075 51.6063 316.746C51.1204 316.602 50.6346 316.454 50.153 316.282C47.1369 315.305 44.1993 314.066 41.3688 312.578C36.99 310.286 32.8914 307.419 29.1664 304.043C27.8679 302.867 26.6195 301.632 25.4214 300.338C10.7176 284.487 4.81961 261.485 9.88631 239.753C14.953 218.021 30.2405 200.749 50.153 194.26C50.6346 194.102 51.1204 193.954 51.6063 193.796C56.7045 192.294 61.967 191.535 67.2527 191.541H112.851C113.904 191.542 114.954 191.425 115.985 191.194L116.11 191.166C118.995 190.495 121.639 188.942 123.724 186.693C124.146 186.239 124.54 185.758 124.907 185.253V185.229C125.339 184.643 125.733 184.024 126.085 183.377V183.354C128.872 178.234 128.901 171.899 126.161 166.75C123.421 161.6 118.331 158.425 112.82 158.426H35.9383C21.4029 158.423 8.29997 148.991 2.73735 134.528C-2.82527 120.064 0.247398 103.416 10.5231 92.3438L10.7896 92.0613L10.9014 91.9455C17.6036 84.9224 26.5874 80.9959 35.9383 81.0028C43.3335 81.0095 50.4659 78.0494 55.9446 72.6997C56.4047 72.2366 56.8476 71.7736 57.2818 71.3105C62.2444 65.8459 65.2237 58.6462 65.6791 51.0181C65.722 50.3235 65.7435 49.6288 65.7435 48.9157C65.7435 23.8722 84.5934 3.57039 107.846 3.57039H351.206C367.079 3.56913 381.075 14.7789 385.642 31.1517C386.642 34.7663 387.152 38.5174 387.156 42.2889C387.156 43.6319 387.091 44.9563 386.971 46.2622C386.818 47.8622 386.574 49.4505 386.24 51.0181C382.461 68.5739 367.939 81.0031 351.206 81.0028H321.969C319.413 80.9981 316.878 81.5021 314.492 82.4893C313.621 82.8459 312.775 83.2668 311.959 83.7489C308.657 85.7015 305.901 88.572 303.979 92.0613C303.721 92.5244 303.476 93.0199 303.248 93.5154C301.822 96.6203 301.086 100.04 301.098 103.504V103.638C301.098 104.333 301.137 105.028 301.197 105.695C301.448 108.46 302.177 111.151 303.347 113.627C303.515 113.984 303.691 114.336 303.876 114.678C307.6 121.681 314.519 126.002 322.012 126.005C322.364 126.005 322.708 126.005 323.056 126.029H323.151C327.065 126.197 330.898 127.284 334.382 129.215C340.101 132.384 344.59 137.634 347.053 144.033C347.053 144.084 347.092 144.131 347.109 144.182C347.879 146.209 348.43 148.325 348.751 150.489C348.987 152.043 349.105 153.615 349.104 155.189V175.102C349.103 175.855 349.143 176.608 349.224 177.357C350.059 185.461 355.304 192.246 362.553 194.598L362.669 194.635C366.041 195.722 369.345 197.043 372.558 198.589L373.47 199.053C375.155 199.895 376.858 200.831 378.556 201.868C383.466 204.817 387.955 208.511 391.885 212.839C393.704 214.855 395.372 217.023 396.873 219.322C397.234 219.873 397.582 220.433 397.926 221.003C400.365 225.08 402.265 229.503 403.572 234.145C405.241 240.221 406.058 246.532 405.997 252.868Z" fill="#FCB44F"/>
<path d="M261.511 212.834H249.068L245.452 169.383C245.406 168.832 245.577 168.287 245.923 167.879C246.269 167.471 246.758 167.239 247.271 167.239H256.051C256.996 167.239 257.785 168.017 257.869 169.031L261.511 212.834Z" fill="#F9E7D9"/>
<ellipse cx="253.394" cy="189.166" rx="3.79231" ry="4.08442" fill="#EFD6C5"/>
<path d="M235.193 167.239H243.104C244.356 167.239 245.37 168.331 245.37 169.679V212.834H232.927V169.679C232.927 168.331 233.942 167.239 235.193 167.239Z" fill="#F9E7D9"/>
<ellipse cx="239.149" cy="189.166" rx="3.79229" ry="4.08442" fill="#EFD6C5"/>
<path d="M330.45 199.432C333.459 199.432 335.9 201.872 335.9 204.882V207.384C335.9 210.394 333.459 212.834 330.45 212.834H299.019C296.009 212.834 293.569 210.394 293.569 207.384V204.882C293.569 201.872 296.009 199.432 299.019 199.432H330.45Z" fill="#F9E7D9"/>
<ellipse cx="315.541" cy="206.133" rx="3.79227" ry="4.08446" fill="#EFD6C5"/>
<path d="M335.764 186.026C338.774 186.026 341.214 188.466 341.214 191.476V193.978C341.214 196.988 338.774 199.428 335.764 199.428H304.334C301.324 199.428 298.884 196.988 298.884 193.978V191.476C298.884 188.466 301.324 186.026 304.334 186.026H335.764Z" fill="#F9E7D9"/>
<ellipse cx="320.859" cy="192.731" rx="3.79229" ry="4.08446" fill="#EFD6C5"/>
<rect x="264.972" y="246.486" width="22.3367" height="18.7365" rx="5.5" fill="#F9E7D9"/>
<ellipse cx="276.143" cy="255.854" rx="4.51462" ry="4.86239" fill="#E8D1C1"/>
<ellipse cx="273.886" cy="255.854" rx="0.460037" ry="0.495576" fill="#D3AA94"/>
<ellipse cx="278.632" cy="255.854" rx="0.460037" ry="0.495576" fill="#D3AA94"/>
<path d="M396.839 219.34H226.396V212.857H391.851C393.669 214.873 395.337 217.041 396.839 219.34Z" fill="#F9E7D9"/>
<path d="M309.048 121.189H226.396V114.706H303.833C305.17 117.207 306.941 119.407 309.048 121.189Z" fill="#F9E7D9"/>
<path d="M223.132 68.4718C224.935 68.4718 226.396 70.0454 226.396 71.9866V378.845H219.869V71.9681C219.878 70.0341 221.337 68.4717 223.132 68.4718V68.4718Z" fill="#F9E7D9"/>
<rect x="259.516" y="32.8003" width="23.9448" height="10.8455" rx="2.7" fill="#F2E1D3"/>
<rect x="243.096" y="47.7857" width="23.9448" height="10.8455" rx="2.7" fill="#F9EEE4"/>
<rect x="213.174" y="47.7857" width="23.9448" height="10.8455" rx="2.7" fill="#F9EEE4"/>
<rect x="275.236" y="47.7857" width="23.9448" height="10.8455" rx="2.7" fill="#F9E7D9"/>
<rect x="229.363" y="63.0305" width="23.9448" height="10.8455" rx="2.7" fill="#F9E7D9"/>
<rect x="86.9495" y="242.323" width="23.9448" height="10.8455" rx="2.7" fill="#F2E1D3"/>
<rect x="70.5291" y="257.304" width="23.9448" height="10.8453" rx="2.7" fill="#F9EEE4"/>
<rect x="40.6078" y="257.304" width="23.9448" height="10.8453" rx="2.7" fill="#F9EEE4"/>
<rect x="102.665" y="257.304" width="23.9448" height="10.8453" rx="2.7" fill="#F9E7D9"/>
<rect x="56.7959" y="272.553" width="23.9448" height="10.8455" rx="2.7" fill="#F9E7D9"/>
<rect x="38.66" y="97.2571" width="21.6316" height="9.79887" rx="2.44" fill="#F2E1D3"/>
<rect x="23.8262" y="110.793" width="21.6316" height="9.79887" rx="2.44" fill="#F9EEE4"/>
<rect x="52.8618" y="110.793" width="21.6316" height="9.79887" rx="2.44" fill="#F9E7D9"/>
<rect x="321.41" y="263.083" width="21.6316" height="9.79879" rx="2.44" fill="#F2E1D3"/>
<rect x="306.576" y="276.624" width="21.6316" height="9.79879" rx="2.44" fill="#F9EEE4"/>
<rect x="335.611" y="276.624" width="21.6317" height="9.79879" rx="2.44" fill="#F9E7D9"/>
<rect x="51.3096" y="387" width="31.8433" height="8.15483" rx="4.07742" transform="rotate(-180 51.3096 387)" fill="#A66633"/>
<rect x="402.639" y="387" width="348.246" height="8.15483" rx="4.07742" transform="rotate(-180 402.639 387)" fill="#A66633"/>
<path d="M202.266 114.258C207.201 120.532 206.421 129.98 200.525 135.36C194.628 140.741 185.847 140.016 180.912 133.742L153.34 98.6883C148.405 92.4142 149.184 82.9665 155.081 77.5862C160.978 72.206 169.759 72.9305 174.694 79.2046L202.266 114.258Z" fill="#DEE4EB"/>
<path d="M257.614 105C259.667 104.611 261.604 105.966 261.941 108.028C262.278 110.09 260.888 112.077 258.835 112.466L248.53 114.421C246.477 114.81 244.54 113.455 244.203 111.393C243.866 109.332 245.256 107.345 247.308 106.955L257.614 105Z" fill="#EF927F"/>
<path d="M259.099 112.423L248.298 114.475C248.095 114.514 247.89 114.532 247.684 114.53C247.05 114.53 246.429 114.344 245.886 113.993C246.029 114.015 246.172 114.026 246.316 114.025C246.521 114.026 246.725 114.006 246.927 113.965L257.732 111.914C259.645 111.549 260.923 109.585 260.587 107.524C260.412 106.438 259.804 105.49 258.923 104.93C260.654 105.16 261.967 106.721 262.009 108.599C262.051 110.477 260.809 112.104 259.091 112.423H259.099Z" fill="#EF927F"/>
<ellipse cx="194.002" cy="122.555" rx="15.8314" ry="17.0508" fill="#004393"/>
<path d="M231.158 95.1666C237.911 92.5494 245.246 95.9965 247.541 102.866C249.836 109.735 246.222 117.426 239.468 120.043L200.184 135.267C193.43 137.884 186.095 134.437 183.8 127.568C181.505 120.699 185.12 113.008 191.873 110.391L231.158 95.1666Z" fill="#F0A284"/>
<ellipse rx="15.6734" ry="13.6222" transform="matrix(0.98747 -0.157808 0.136479 0.990643 240.386 106.02)" fill="#F0A284"/>
<path d="M231.158 95.1666C237.911 92.5494 245.246 95.9965 247.541 102.866C249.836 109.735 246.222 117.426 239.468 120.043L200.184 135.267C193.43 137.884 186.095 134.437 183.8 127.568C181.505 120.699 185.12 113.008 191.873 110.391L231.158 95.1666Z" fill="#E28F79"/>
<ellipse rx="15.6734" ry="13.6222" transform="matrix(0.98747 -0.157808 0.136479 0.990643 240.386 106.02)" fill="#F0A284"/>
<path d="M255.879 103.56C255.695 102.261 255.301 101.007 254.713 99.855C253.961 103.509 251.575 106.801 248.178 109.043C246.052 110.423 243.691 111.332 241.234 111.715C240.578 111.819 239.918 111.887 239.256 111.918L228.907 115.933L198.491 127.719C192.549 130.027 185.951 127.092 183.253 120.939C182.903 123.169 183.095 125.459 183.812 127.585C184.911 130.885 187.184 133.58 190.13 135.074C193.075 136.568 196.452 136.739 199.514 135.55L240.159 119.805C240.194 119.794 240.229 119.78 240.262 119.763C240.932 119.73 241.599 119.66 242.262 119.555C250.788 118.161 256.889 111.006 255.879 103.56Z" fill="#EF927F"/>
<path d="M258.295 96.9521C260.303 96.3932 262.325 97.5832 262.812 99.6099C263.298 101.637 262.064 103.733 260.056 104.292L249.89 107.122C247.882 107.68 245.86 106.49 245.373 104.464C244.887 102.437 246.12 100.341 248.128 99.7819L258.295 96.9521Z" fill="#F0A284"/>
<path d="M252.534 91.0826C254.587 90.6933 256.524 92.0489 256.861 94.1105C257.198 96.1721 255.808 98.159 253.755 98.5484L243.45 100.504C241.397 100.893 239.46 99.5373 239.123 97.4757C238.786 95.4141 240.176 93.4272 242.229 93.0378L252.534 91.0826Z" fill="#F0A284"/>
<path d="M237.541 88.4718C239.089 87.1483 241.324 87.4046 242.532 89.0443C243.741 90.6839 243.465 93.086 241.917 94.4095L233.416 101.677C231.868 103 229.633 102.744 228.425 101.104C227.216 99.4647 227.492 97.0626 229.04 95.7391L237.541 88.4718Z" fill="#F0A284"/>
<ellipse cx="231.095" cy="103.333" rx="7.2578" ry="7.81685" fill="#F0A284"/>
<path d="M146.93 17.5926H156.389C158.977 17.5926 161.076 19.8525 161.076 22.6402V26.5024C161.076 33.7969 155.59 39.7132 148.817 39.7234C147.782 39.7234 146.943 38.8195 146.943 37.7044V17.5926H146.93Z" fill="#004393"/>
<rect x="127.59" y="197.987" width="90.5679" height="11.3548" rx="5.67741" fill="#9A463B"/>
<path d="M165.689 200.997L162.073 212.112L155.705 231.686L124.653 326.568L107.588 378.706H94.3878L106.552 326.568L128.686 231.686L133.571 212.112L136.344 200.997H165.689Z" fill="#9A463B"/>
<path d="M212.362 200.997L211.773 212.112L210.737 231.686L204.524 326.568L201.105 378.706H187.905L186.422 326.568L183.717 231.686L183.266 212.112L183.012 200.997H212.362Z" fill="#9A463B"/>
<path d="M157.352 130.956H198.775C199.777 130.956 200.589 131.831 200.589 132.91C200.589 136.687 199.196 140.309 196.717 142.979C194.237 145.65 190.874 147.15 187.368 147.15H144.131V145.196C144.131 137.331 150.05 130.956 157.352 130.956V130.956Z" fill="#9A463B"/>
<rect x="162.907" y="135.832" width="14.6404" height="73.5146" rx="7.32018" fill="#9A463B"/>
<path d="M124.494 92.9551H152.257C163.358 92.9551 172.358 102.648 172.358 114.604V177.014C172.358 188.971 163.358 198.663 152.257 198.663H104.393V114.609C104.392 108.866 106.509 103.359 110.279 99.2976C114.049 95.2366 119.162 92.9551 124.494 92.9551V92.9551Z" fill="#9A463B"/>
<path d="M106.552 326.568H124.653L107.588 378.706H94.3878L106.552 326.568Z" fill="#6F232D"/>
<path d="M204.524 326.568L201.105 378.706H187.905L186.422 326.568H204.524Z" fill="#6F232D"/>
<path d="M209.615 292.199L210.256 309.176L185.163 310.275L184.522 293.299L209.615 292.199Z" fill="#F0A284"/>
<path d="M209.619 292.199L209.83 297.779L184.737 298.879L184.526 293.299L209.619 292.199Z" fill="#EF927F"/>
<path d="M195.146 312.443L219.615 313.522C219.83 306.289 214.591 300.22 207.877 299.924C201.163 299.628 195.482 305.215 195.146 312.443H195.146Z" fill="white"/>
<path d="M222.131 316.685V312.647C222.127 310.896 220.86 309.45 219.237 309.345L187.084 307.289C186.025 307.22 184.986 307.626 184.215 308.411C183.443 309.197 183.008 310.291 183.012 311.434V318.917L222.131 316.685Z" fill="#004393"/>
<path d="M183.008 316.685V320.39C183.008 320.79 183.156 321.173 183.419 321.456C183.682 321.738 184.038 321.896 184.41 321.895L220.376 321.793C221.504 321.791 222.584 321.306 223.379 320.445C224.174 319.584 224.619 318.418 224.616 317.204C224.613 315.99 224.163 314.826 223.364 313.97C222.565 313.113 221.482 312.634 220.355 312.638L210.62 312.666C209.653 312.668 208.727 313.084 208.045 313.822C207.363 314.561 206.981 315.56 206.983 316.602L183.008 316.685Z" fill="#108FD4"/>
<path d="M146.624 266.621L153.587 255.839L173.996 271.128L167.033 281.909L146.624 266.621Z" fill="#EF927F"/>
<path d="M153.848 275.346L172.672 292.216C175.542 288.603 176.384 283.606 174.876 279.137C173.368 274.668 169.743 271.419 165.389 270.634C161.034 269.849 156.625 271.649 153.848 275.346H153.848Z" fill="#EFDADC"/>
<path d="M172.895 296.388L175.17 293.17C176.155 291.779 175.967 289.802 174.74 288.655L150.365 265.964C149.562 265.21 148.504 264.85 147.444 264.968C146.385 265.087 145.418 265.674 144.776 266.589L140.57 272.544L172.895 296.388Z" fill="#004393"/>
<path d="M141.813 270.77L139.663 273.818C139.454 274.111 139.362 274.483 139.408 274.85C139.454 275.216 139.634 275.548 139.908 275.772L168.596 299.301C170.464 300.83 173.129 300.44 174.551 298.43C175.235 297.466 175.536 296.249 175.386 295.046C175.237 293.843 174.65 292.754 173.755 292.017L166.016 285.659C164.413 284.347 162.126 284.683 160.908 286.409L141.813 270.77Z" fill="#013568"/>
<path d="M228.692 164.668C232.383 167.432 234.903 171.662 235.698 176.427C236.493 181.193 235.498 186.103 232.931 190.078L177.896 275.286L150.064 254.447L205.1 169.239C207.664 165.261 211.591 162.544 216.016 161.687C220.441 160.83 225.001 161.902 228.692 164.668Z" fill="#004393"/>
<path d="M218.218 197.987H172.951C166.735 197.989 160.773 195.33 156.377 190.595C151.982 185.861 149.513 179.44 149.514 172.745V166.586C149.514 164.654 150.226 162.801 151.495 161.435C152.763 160.069 154.483 159.301 156.277 159.301H218.218C228.138 159.301 236.18 167.961 236.182 178.644C236.18 189.328 228.138 197.987 218.218 197.987Z" fill="#004393"/>
<path d="M167.13 145.613C167.147 160.696 154.935 172.938 139.852 172.958C124.77 172.978 112.529 160.767 112.512 145.685L112.466 105.274C112.449 90.1915 124.662 77.9486 139.744 77.9287C154.827 77.9089 167.067 90.1196 167.084 105.202L167.13 145.613Z" fill="white"/>
<path d="M148.463 122.582L134.519 122.6C118.713 122.621 105.885 108.838 105.865 91.8146L105.862 88.7953C105.852 78.3925 113.669 69.9476 123.327 69.9247L159.517 69.8771C169.185 69.8644 177.031 78.2945 177.043 88.7063L177.046 91.7256C177.065 108.749 164.268 122.565 148.463 122.586L148.463 122.582Z" fill="white"/>
<path d="M146.5 68.2078V69.8888L127.461 69.9119L127.448 59.6175L127.444 49.8603L146.478 49.8372L146.5 68.2078Z" fill="#F0A284"/>
<path d="M112.507 172.745C112.51 186.081 122.144 197.115 134.504 197.937H134.757C135.149 197.937 135.544 197.969 135.944 197.969H181.215C191.028 197.983 199.029 189.499 199.17 178.931C199.325 168.123 190.911 159.283 180.875 159.283H112.511L112.507 172.745Z" fill="#108FD4"/>
<path d="M165.22 180.122L165.336 181.048L166.656 191.425L173.411 244.444L180.157 297.379L213.875 292.396L210.964 269.543L201.479 195.098L198.934 175.139C198.251 169.726 195.357 164.926 191.044 162.052C190.517 161.699 189.971 161.379 189.41 161.093C183.765 158.188 177.094 158.855 172.041 162.83C166.988 166.804 164.369 173.445 165.22 180.122Z" fill="#108FD4"/>
<path d="M146.5 68.2078C146.07 68.2448 145.618 68.2587 145.171 68.2495C138.408 68.1439 131.989 65.0176 127.448 59.6175V49.8603L146.482 49.8372L146.5 68.2078Z" fill="#EF927F"/>
<path d="M157.885 24.1221L157.825 28.1555L157.541 47.2763C157.407 56.0229 150.721 62.9999 142.6 62.8684C129.091 62.64 118.311 50.6609 118.522 36.1113L118.694 24.5944C118.821 16.682 124.869 10.3728 132.216 10.4888L145.816 10.7204C149.067 10.7716 152.166 12.2128 154.43 14.7266C156.694 17.2404 157.937 20.6205 157.885 24.1221Z" fill="#F0A284"/>
<path d="M157.885 24.1221L157.825 28.1556C153.542 29.8476 149.01 30.6902 144.449 30.6423C131.55 30.6423 121.08 24.4509 120.994 16.7868C123.51 12.777 127.736 10.4077 132.229 10.4889L145.829 10.7204C149.078 10.7752 152.173 12.2181 154.435 14.7315C156.696 17.2449 157.937 20.6229 157.885 24.1221Z" fill="#EF927F"/>
<path d="M124.709 143.718V201.461C124.709 205.816 121.431 209.347 117.387 209.347C113.343 209.347 110.064 205.816 110.064 201.461V143.718C110.062 142.727 110.237 141.744 110.58 140.824C111.676 137.804 114.378 135.816 117.389 135.816C120.399 135.816 123.102 137.804 124.197 140.824C124.537 141.745 124.711 142.727 124.709 143.718Z" fill="#DB8D5C"/>
<path d="M136.997 200.997L134.28 209.347L133.381 212.112L129.189 224.999L127.014 231.686L95.9616 326.568L78.8962 378.706H65.6963L77.8643 326.568L99.9989 231.686L101.667 224.999L104.879 212.112L105.571 209.347L107.652 200.997H136.997Z" fill="#DB8D5C"/>
<path d="M183.675 200.997L183.232 209.347L183.086 212.112L182.398 224.999L182.049 231.686L175.832 326.568L172.414 378.706H159.214L157.735 326.568L155.035 231.686L154.875 224.999L154.583 212.112L154.514 209.347L154.325 200.997H183.675Z" fill="#DB8D5C"/>
<rect x="98.8982" y="193.482" width="90.568" height="15.8606" rx="7.93032" fill="#DB8D5C"/>
<rect x="110.817" y="196.779" width="66.735" height="9.27107" rx="4.63554" fill="#F1A873"/>
<path d="M105.571 209.347H134.28L133.381 212.111L129.189 224.999H101.667L105.571 209.347Z" fill="#CB7748"/>
<path d="M183.232 209.347L183.086 212.111L182.398 224.999H154.876L154.583 212.111L154.514 209.347H183.232Z" fill="#CB7748"/>
<path d="M124.709 143.718V157.014H110.064V143.718C110.062 142.727 110.237 141.744 110.58 140.824H124.197C124.537 141.745 124.711 142.727 124.709 143.718Z" fill="#CB7748"/>
<path d="M95.9616 326.568L78.8962 378.706H65.6963L77.8643 326.568H95.9616Z" fill="#CB7748"/>
<path d="M175.832 326.568L172.414 378.706H159.214L157.735 326.568H175.832Z" fill="#CB7748"/>
<path d="M104.531 130.956H145.954C146.956 130.956 147.768 131.831 147.768 132.91C147.768 140.774 141.849 147.15 134.547 147.15H91.2878V145.196C91.2878 141.415 92.6838 137.79 95.1679 135.118C97.6521 132.447 101.021 130.95 104.531 130.956Z" fill="#DB8D5C"/>
<path d="M147.747 130.956V132.91C147.748 136.686 146.356 140.308 143.877 142.979C141.398 145.649 138.036 147.15 134.529 147.15H113.891C121.193 147.15 127.113 140.775 127.113 132.91V130.956H147.747Z" fill="#E9A06D"/>
<path d="M234.969 214.756H295.969V232.543H234.969V214.756Z" fill="#CB7748"/>
<path d="M311.731 379.503H305.66L300.346 326.568L281.298 136.712L280.215 125.899H293.707L294.477 136.712L307.969 326.568L311.731 379.503Z" fill="#DB8D5C"/>
<path d="M250.143 125.899L248.939 136.712L227.802 326.568L221.907 379.503H215.174L219.349 326.568L234.316 136.712L235.172 125.899L250.143 125.899Z" fill="#DB8D5C"/>
<path d="M235.172 125.899H250.143L248.939 136.712H234.316L235.172 125.899Z" fill="#CB7748"/>
<path d="M294.477 136.712H281.298L280.215 125.899H293.707L294.477 136.712Z" fill="#CB7748"/>
<rect x="225.024" y="120.504" width="80.5583" height="11.5122" rx="5.7561" fill="#DB8D5C"/>
<path d="M219.349 326.568H227.802L221.907 379.503H215.174L219.349 326.568Z" fill="#CB7748"/>
<path d="M311.731 379.503H305.66L300.346 326.568H307.969L311.731 379.503Z" fill="#CB7748"/>
<path d="M301.262 294.92C300.685 294.92 300.182 294.216 300.092 293.23L290.366 183.942C290.267 182.854 290.714 181.844 291.359 181.682C292.004 181.52 292.606 182.27 292.701 183.354L302.431 292.642C302.526 293.725 302.083 294.735 301.438 294.897C301.38 294.914 301.321 294.921 301.262 294.92Z" fill="#F1A873"/>
<path d="M227.217 294.92C227.793 294.92 228.296 294.216 228.387 293.23L238.112 183.942C238.211 182.854 237.764 181.844 237.119 181.682C236.474 181.52 235.872 182.27 235.778 183.354L226.048 292.642C225.953 293.725 226.396 294.735 227.041 294.897C227.098 294.914 227.158 294.921 227.217 294.92Z" fill="#F1A873"/>
<path d="M248.741 114.526H250.551C251.501 114.526 252.271 115.355 252.271 116.378V117.462H247.008V116.378C247.008 115.884 247.191 115.411 247.517 115.063C247.842 114.715 248.283 114.522 248.741 114.526Z" fill="#DEE4EB"/>
<path d="M243.47 114.526H245.28C246.23 114.526 247 115.355 247 116.378V117.462H241.741V116.378C241.741 115.885 241.924 115.412 242.248 115.065C242.573 114.717 243.012 114.523 243.47 114.526Z" fill="#DEE4EB"/>
<path d="M238.203 114.526H240.013C240.963 114.526 241.733 115.355 241.733 116.378V117.462H236.47V116.378C236.47 115.884 236.653 115.411 236.978 115.063C237.304 114.715 237.744 114.522 238.203 114.526Z" fill="#DEE4EB"/>
<path d="M232.931 114.526H234.742C235.691 114.526 236.461 115.355 236.461 116.378V117.462H231.199V116.378C231.199 115.884 231.382 115.411 231.707 115.063C232.032 114.715 232.473 114.522 232.931 114.526Z" fill="#DEE4EB"/>
<path d="M227.66 114.526H229.47C230.42 114.526 231.19 115.355 231.19 116.378V117.462H225.932V116.378C225.932 115.885 226.114 115.412 226.438 115.065C226.763 114.717 227.202 114.523 227.66 114.526Z" fill="#DEE4EB"/>
<path d="M222.393 114.526H224.203C225.153 114.526 225.923 115.355 225.923 116.378V117.462H220.66V116.378C220.66 115.884 220.843 115.411 221.168 115.063C221.494 114.715 221.935 114.522 222.393 114.526Z" fill="#DEE4EB"/>
<path d="M217.121 114.526H218.932C219.881 114.526 220.651 115.355 220.651 116.378V117.462H215.389V116.378C215.389 115.884 215.572 115.411 215.897 115.063C216.222 114.715 216.663 114.522 217.121 114.526Z" fill="#DEE4EB"/>
<rect x="199.785" y="114.965" width="71.9977" height="5.53382" rx="2.76691" fill="#004393"/>
<path d="M251.949 120.504H312.024C314.546 120.51 316.748 118.665 317.364 116.031L329.072 65.9248C329.485 64.1553 329.118 62.2793 328.076 60.8404C327.034 59.4016 325.434 58.5608 323.74 58.5617H270.708C268.19 58.5608 265.994 60.4047 265.381 63.0351L251.949 120.504Z" fill="#108FD4"/>
<path d="M329.063 65.9294L317.364 116.031C316.749 118.662 314.551 120.505 312.032 120.504H251.953L253.243 114.947H300.707C303.227 114.947 305.425 113.104 306.043 110.474L317.746 60.3724C317.889 59.7677 317.941 59.1424 317.901 58.52H323.731C325.435 58.5173 327.043 59.3647 328.086 60.8147C329.13 62.2647 329.491 64.1536 329.063 65.9294Z" fill="#004393"/>
<ellipse cx="294.266" cy="91.1907" rx="3.00544" ry="3.23694" fill="#DEE4EB"/>
<path d="M298.295 96.0392C296.993 98.2222 294.589 99.3321 292.224 98.8415C289.859 98.3509 288.009 96.3588 287.554 93.8114C287.098 91.264 288.129 88.6745 290.155 87.273C288.67 89.7837 289.004 93.0692 290.958 95.1745C292.913 97.2798 295.964 97.6393 298.295 96.0392Z" fill="#DEE4EB"/>
<path d="M114.893 17.5926H129.039V26.507C129.039 33.8088 123.543 39.728 116.763 39.728C116.266 39.728 115.789 39.5153 115.438 39.1367C115.086 38.758 114.889 38.2445 114.889 37.709V17.5926H114.893Z" fill="#004393"/>
<ellipse cx="136.972" cy="13.9528" rx="23.4632" ry="13.9528" fill="#004393"/>
<path d="M156.987 13.9527C156.987 19.6579 149.213 24.2795 139.625 24.2795C138.821 24.2795 138.025 24.2471 137.247 24.1823C145.704 23.4923 152.227 19.1763 152.227 13.9527C152.227 8.72912 145.704 4.41317 137.247 3.72317C138.025 3.66297 138.821 3.63055 139.625 3.63055C149.191 3.63982 156.987 8.27067 156.987 13.9527Z" fill="#108FD4"/>
<ellipse cx="127.448" cy="11.5031" rx="11.1447" ry="6.62674" fill="#108FD4"/>
<ellipse cx="119.541" cy="35.3611" rx="6.2216" ry="6.70082" fill="#F0A284"/>
<path d="M145.125 121.642C148.548 128.717 145.768 137.57 138.915 141.418C132.062 145.265 123.731 142.649 120.307 135.575L100.21 94.0476C96.7863 86.9733 99.5665 78.1197 106.42 74.2724C113.273 70.4252 121.604 73.0412 125.027 80.1155L145.125 121.642Z" fill="#DEE4EB"/>
<path d="M134.628 142.941C128.694 143.935 122.832 140.746 120.053 135.012L100.498 94.599C98.0574 89.5589 98.458 83.4687 101.534 78.8496C104.61 74.2304 109.837 71.8684 115.052 72.7414C113.551 72.9926 112.098 73.509 110.752 74.2696C107.46 76.1155 104.984 79.295 103.87 83.108C102.755 86.9211 103.094 91.0548 104.81 94.599L124.369 135.012C126.42 139.266 130.231 142.211 134.628 142.941Z" fill="white"/>
<ellipse cx="132.53" cy="127.316" rx="15.8313" ry="17.0508" fill="#004393"/>
<path d="M171.197 107.778C178.314 106.24 185.164 110.795 186.498 117.953C187.832 125.111 183.144 132.16 176.028 133.699L135.383 142.486C128.266 144.024 121.416 139.469 120.082 132.311C118.748 125.153 123.436 118.104 130.552 116.565L171.197 107.778Z" fill="#F0A284"/>
<ellipse cx="178.992" cy="119.953" rx="15.6465" ry="13.6425" fill="#F0A284"/>
<path d="M194.634 119.758C193.727 125.779 188.297 130.571 181.417 131.447C180.657 131.545 179.891 131.595 179.125 131.595C178.462 131.595 177.799 131.558 177.139 131.484L177.014 131.516L172.715 132.442L134.671 140.667C128.025 142.098 121.56 137.459 120.224 130.303C120.068 129.467 119.988 128.617 119.984 127.765C119.466 131.565 120.506 135.42 122.834 138.329C125.161 141.239 128.547 142.916 132.113 142.927C132.929 142.925 133.743 142.837 134.542 142.663L176.894 133.507L177.014 133.48C177.676 133.553 178.34 133.588 179.005 133.586C187.647 133.586 194.652 127.483 194.652 119.948C194.639 119.874 194.639 119.828 194.634 119.758V119.758Z" fill="#FCB798"/>
<path d="M193.03 121.746C195.122 121.685 196.861 123.332 196.913 125.424C196.966 127.517 195.312 129.263 193.22 129.324L182.793 129.628C180.7 129.689 178.961 128.042 178.909 125.949C178.856 123.857 180.51 122.111 182.602 122.05L193.03 121.746Z" fill="#F0A284"/>
<path d="M198.931 114.495C201.023 114.434 202.762 116.081 202.815 118.173C202.867 120.266 201.214 122.012 199.122 122.072L188.694 122.376C186.602 122.437 184.863 120.79 184.81 118.698C184.758 116.605 186.411 114.859 188.504 114.798L198.931 114.495Z" fill="#F0A284"/>
<path d="M193.029 107.086C195.121 107.025 196.86 108.672 196.913 110.765C196.965 112.857 195.312 114.603 193.219 114.664L182.792 114.968C180.699 115.029 178.961 113.382 178.908 111.289C178.856 109.197 180.509 107.451 182.601 107.39L193.029 107.086Z" fill="#F0A284"/>
<path d="M178.506 102.18C180.253 101.094 182.457 101.683 183.428 103.496C184.4 105.309 183.772 107.659 182.025 108.746L172.753 114.511C171.006 115.598 168.802 115.009 167.83 113.196C166.858 111.383 167.487 109.033 169.233 107.946L178.506 102.18Z" fill="#F0A284"/>
<path d="M156.749 123.088C158.893 122.624 160.957 123.997 161.359 126.153C161.761 128.31 160.348 130.434 158.204 130.897L140.249 134.779C138.105 135.242 136.041 133.87 135.639 131.713C135.238 129.557 136.65 127.433 138.794 126.969L156.749 123.088Z" fill="#FCB798"/>
<ellipse cx="139.47" cy="35.3612" rx="1.45325" ry="1.56522" fill="#361647"/>
<ellipse cx="150.137" cy="35.3612" rx="1.45327" ry="1.56522" fill="#361647"/>
<path d="M120.749 38.8343V33.1476C120.741 32.861 120.61 32.5945 120.395 32.426C120.18 32.2575 119.904 32.2059 119.648 32.2863C118.153 32.802 117.138 34.2996 117.138 35.991C117.138 37.6824 118.153 39.1799 119.648 39.6957C119.904 39.7761 120.18 39.7245 120.395 39.5559C120.61 39.3874 120.741 39.1209 120.749 38.8343Z" fill="#EF927F"/>
<ellipse cx="120.474" cy="35.991" rx="2.51961" ry="2.71368" fill="#FCF4E6"/>
<path d="M120.508 37.8616C120.156 37.3955 120.226 36.7056 120.666 36.3207C121.105 35.9357 121.747 36.0015 122.099 36.4676L125.068 40.398C125.42 40.864 125.349 41.5539 124.91 41.9389C124.47 42.3238 123.829 42.2581 123.477 41.792L120.508 37.8616Z" fill="#FCF4E6"/>
<path d="M123.819 40.807L121.798 38.1304L121.626 37.9035C121.444 37.9581 121.256 37.9846 121.067 37.9822C120.998 37.9868 120.93 37.9868 120.861 37.9822C119.666 37.8694 118.75 36.7918 118.75 35.5001C118.743 34.9751 118.893 34.4617 119.18 34.0368C118.617 34.5055 118.29 35.2297 118.294 35.9956C118.294 37.3741 119.332 38.4916 120.611 38.4916C120.799 38.4915 120.985 38.465 121.166 38.4129L123.363 41.3164C123.57 41.5897 123.894 41.7274 124.219 41.6802C124.543 41.633 124.822 41.4075 124.954 41.0849C124.561 41.2836 124.093 41.1691 123.819 40.807Z" fill="white"/>
<path d="M148.082 42.0759C148.08 43.1386 147.686 44.1567 146.986 44.9054C146.9 44.998 146.809 45.0813 146.719 45.1647C146.055 45.7634 145.216 46.0913 144.35 46.0909H144.199C142.26 46.0802 140.652 44.4692 140.502 42.3862C140.502 42.275 140.502 42.1639 140.502 42.0528C140.504 41.8472 140.581 41.6507 140.717 41.5063C140.85 41.3595 141.033 41.2775 141.224 41.2794H147.377C147.569 41.283 147.751 41.3693 147.884 41.519C148.016 41.6686 148.088 41.8692 148.082 42.0759Z" fill="#962F4A"/>
<path d="M144.277 45.4703C144.278 45.6771 144.259 45.8835 144.221 46.0862H144.199C142.259 46.0778 140.65 44.4656 140.502 42.3815C140.77 42.2973 141.048 42.2551 141.327 42.2565C142.115 42.2589 142.869 42.5995 143.423 43.2027C143.976 43.806 144.284 44.6221 144.277 45.4703Z" fill="#E1617F"/>
<path d="M147.226 41.3118C147.196 42.0944 146.07 42.7242 144.685 42.701C143.301 42.6779 142.179 42.062 142.148 41.2748L147.226 41.3118Z" fill="white"/>
</svg>
